# xmcd
#
# Track frame offsets: 
#        150
#        14852
#        33717
#        49854
#        69158
#        86370
#        112202
#        131379
#        143771
#        161218
#        181413
#        232532
#        261776
#        292775
#
# Disc length: 4337 seconds
#
# Revision: 0
# Processed by: cddbd v1.5.2PL0 Copyright (c) Steve Scherf et al.
# Submitted via: ExactAudioCopy v1.3
#
DISCID=bf10ef0e
DTITLE=Duke Robillard - The Best of Duke Robillard
DYEAR=1995
DGENRE=Blues
TTITLE0=Zot
TTITLE1=Jim Jam
TTITLE2=No Time
TTITLE3=The High Cost of Loving
TTITLE4=I May Be Ugly
TTITLE5=Sweet Georgia Brown
TTITLE6=Don't Get Me Shook Up
TTITLE7=Texas Hop
TTITLE8=Love Slipped In
TTITLE9=My Heart is Cryin'
TTITLE10=Dyin' Flu
TTITLE11=Duke's Blues
TTITLE12=Red's Riff
TTITLE13=Albi Ain't Here
EXTD=
EXTT0=
EXTT1=
EXTT2=
EXTT3=
EXTT4=
EXTT5=
EXTT6=
EXTT7=
EXTT8=
EXTT9=
EXTT10=
EXTT11=
EXTT12=
EXTT13=
PLAYORDER=
